<?xml version="1.0" encoding="UTF-8"?>
<svg version="1.1" xmlns="http://www.w3.org/2000/svg" width="844" height="300">
<path d="M0 0 C278.52 0 557.04 0 844 0 C844 99 844 198 844 300 C565.48 300 286.96 300 0 300 C0 201 0 102 0 0 Z " fill="#000000" transform="translate(0,0)"/>
<path d="M0 0 C18.84954549 6.21598202 36.24083372 12.51027269 52 25 C52.84304688 25.65355469 53.68609375 26.30710937 54.5546875 26.98046875 C67.15116902 37.43829531 76.53313897 53.27775598 78.71484375 69.56640625 C81.4745783 102.7966346 70.58270188 136.45565494 49 162 C34.29359927 178.84875956 18.48901713 190.13161945 -2 199 C-3.16144531 199.51691406 -4.32289063 200.03382813 -5.51953125 200.56640625 C-27.11799811 209.46274445 -50.79393542 209.43604183 -73.73828125 209.29296875 C-76.13944285 209.28854429 -78.54060737 209.28549216 -80.94177246 209.28381348 C-89.73205981 209.26824254 -98.52228475 209.22635976 -107.3125 209.1875 C-127.009375 209.125625 -146.70625 209.06375 -167 209 C-167 161.81 -167 114.62 -167 66 C-147.25328113 66 -134.96848855 68.63724647 -120.76171875 82.125 C-110.08019598 93.38988277 -104.84075422 107.18855422 -104.90234375 122.5859375 C-104.9037587 123.28772125 -104.90517365 123.989505 -104.90663147 124.71255493 C-104.9121871 126.93341504 -104.92473108 129.15417084 -104.9375 131.375 C-104.94252074 132.88932145 -104.94708264 134.4036445 -104.95117188 135.91796875 C-104.96214193 139.61201252 -104.97937551 143.30599606 -105 147 C-97.25360539 146.93838888 -89.50753582 146.86100225 -81.76150894 146.76428509 C-78.16345778 146.7198381 -74.56551318 146.68052826 -70.96728516 146.65356445 C-67.48517426 146.62727163 -64.00347932 146.58669388 -60.52162933 146.53681374 C-58.56784061 146.51237196 -56.6138901 146.50216808 -54.65997314 146.49235535 C-34.97490689 146.17306474 -16.68014771 139.29663927 -2.3125 125.75 C14.99917846 107.64588555 19.62083363 82.81066933 19.08886719 58.63671875 C18.41789557 38.72876951 13.00142931 21.25949674 1.75390625 4.69140625 C0 2 0 2 0 0 Z " fill="#FDFDFD" transform="translate(227,89)"/>
<path d="M0 0 C0.33 0 0.66 0 1 0 C1 2.31 1 4.62 1 7 C1.91200133 6.99815641 2.82400267 6.99631283 3.7636404 6.99441338 C26.01790125 6.95012593 48.27215443 6.91709088 70.52645016 6.89637566 C81.28872708 6.88609009 92.05097446 6.87208211 102.81323242 6.84912109 C112.20034305 6.82910358 121.58743228 6.81626383 130.97456366 6.81182301 C135.93884372 6.80922972 140.90306259 6.80319186 145.86732292 6.78853989 C150.55320762 6.77482343 155.23900673 6.77080534 159.92490959 6.77378464 C161.63192207 6.77324069 163.33893784 6.76934792 165.04593277 6.76158905 C203.00128886 6.59773599 240.57053945 17.13549646 268.4375 44.0625 C269.64726442 45.35450718 270.83428215 46.66811623 272 48 C272.7115625 48.80566406 273.423125 49.61132812 274.15625 50.44140625 C291.94535433 71.36797248 302.09814316 96.09092451 307 123 C302.91272335 119.62355407 299.15966406 116.1496394 295.5 112.3125 C281.84752313 98.57740602 265.16777535 89.37619039 247 83 C245.96875 82.60296875 244.9375 82.2059375 243.875 81.796875 C235.45280246 78.71653423 226.88660046 76.73504658 218.125 74.875 C217.01060547 74.63338135 215.89621094 74.3917627 214.74804688 74.14282227 C210.84451257 73.34524086 206.92903224 72.65639256 203 72 C202.24022858 71.86509155 201.48045715 71.73018311 200.69766235 71.59118652 C175.64010759 67.30011026 149.85887943 68.53420179 124.53405762 68.49468994 C117.85945143 68.48307756 111.18509365 68.45932414 104.51059151 68.41999817 C101.42881729 68.40663578 98.34740042 68.41055584 95.26560974 68.41540527 C68.42993008 68.34014884 45.27384708 62.17543934 25 44 C24.29359375 43.38769531 23.5871875 42.77539062 22.859375 42.14453125 C13.29459565 33.31405583 7.73843972 21.47687943 2 10 C1.67 105.7 1.34 201.4 1 300 C0.67 300 0.34 300 0 300 C0 201 0 102 0 0 Z " fill="#FCFCFD" transform="translate(0,0)"/>
<path d="M0 0 C2.87839523 1.71987101 4.97458143 3.1520548 6.4375 6.25 C6.95304117 8.9308141 7.21001179 11.52014153 7.4375 14.25 C4.1375 14.25 0.8375 14.25 -2.5625 14.25 C-2.81 13.30125 -3.0575 12.3525 -3.3125 11.375 C-4.26921756 8.25560514 -4.26921756 8.25560514 -6.3125 6.8125 C-9.35409969 6.05210008 -11.54892844 6.4638509 -14.5625 7.25 C-16.8522394 9.15045308 -16.8522394 9.15045308 -17.0625 12.3125 C-15.90266216 21.44622295 -8.12365913 28.13665732 -1.8125 34.3125 C-1.04550781 35.08271484 -0.27851562 35.85292969 0.51171875 36.64648438 C3.90987533 40.63669392 3.90987533 40.63669392 8.4375 42.25 C9.47360051 40.4368241 10.46640868 38.59880847 11.4375 36.75 C14.63642724 31.46805037 14.63642724 31.46805037 18.12109375 30.51953125 C20.64057853 30.55884236 22.96821518 30.75813039 25.4375 31.25 C19.28715831 43.91970387 19.28715831 43.91970387 15.4375 49.25 C17.04163549 53.31831953 19.96895948 55.9735113 23.0625 58.9375 C24.87601058 60.68980459 26.66436009 62.45610427 28.4375 64.25 C28.4375 64.58 28.4375 64.91 28.4375 65.25 C18.05992152 66.3235426 18.05992152 66.3235426 14.08203125 63.69140625 C12.38556435 61.95296491 10.86181461 60.21595538 9.4375 58.25 C8.60605469 58.74371094 7.77460937 59.23742187 6.91796875 59.74609375 C5.28794922 60.70708984 5.28794922 60.70708984 3.625 61.6875 C2.54605469 62.32558594 1.46710937 62.96367187 0.35546875 63.62109375 C-6.86843283 67.65371351 -16.73744113 67.55045667 -24.6640625 65.4140625 C-29.50252537 63.23602332 -33.25307925 60.4924676 -35.78515625 55.76171875 C-37.81273499 49.210296 -37.79401911 42.0086028 -35 35.75 C-31.13775545 31.78872354 -27.16792445 28.32028297 -22.5625 25.25 C-23.01625 24.6725 -23.47 24.095 -23.9375 23.5 C-27.56827247 18.47277658 -28.40599961 14.38939593 -27.5625 8.25 C-25.54610032 3.97523268 -23.00843859 1.12689975 -18.74609375 -1.0546875 C-12.60047783 -3.01160992 -5.84500065 -2.71760178 0 0 Z " fill="#F4F4F4" transform="translate(671.5625,90.75)"/>
<path d="M0 0 C3.63 0 7.26 0 11 0 C14.9896991 8.97682298 18.11643311 18.11749484 21.14453125 27.45703125 C23.16269189 33.68696894 23.16269189 33.68696894 25.5859375 39.765625 C27.11791315 43.2697019 28.31930804 46.80081738 29.5 50.4375 C31.21483316 55.67514771 33.00736573 60.86110108 35 66 C31.7 66 28.4 66 25 66 C22.63232952 61.58752319 21.41730507 57.96056775 20 53 C10.43 52.67 0.86 52.34 -9 52 C-9.66 54.97 -10.32 57.94 -11 61 C-11.61896629 62.68496378 -12.26117922 64.36403971 -13 66 C-16.3 66 -19.6 66 -23 66 C-21.95483467 60.85457067 -20.77141152 56.03423527 -18.84765625 51.15234375 C-17.87377172 48.67948487 -16.96648236 46.18674534 -16.0625 43.6875 C-15.72347656 42.75292969 -15.38445313 41.81835938 -15.03515625 40.85546875 C-14.69355469 39.91316406 -14.35195313 38.97085938 -14 38 C-13.33354155 36.16659096 -12.66687664 34.33325697 -12 32.5 C-11.67 31.5925 -11.34 30.685 -11 29.75 C-8 21.5 -8 21.5 -7.0078125 18.7734375 C-6.31344502 16.86258125 -5.62084033 14.95108383 -4.9296875 13.0390625 C-4.58164062 12.07742187 -4.23359375 11.11578125 -3.875 10.125 C-3.56304688 9.26132813 -3.25109375 8.39765625 -2.9296875 7.5078125 C-1.99589833 4.98893582 -0.99770094 2.49425235 0 0 Z " fill="#F0F0F0" transform="translate(594,90)"/>
<path d="M0 0 C2.3828125 -0.29296875 2.3828125 -0.29296875 5.125 -0.1875 C6.03507813 -0.16042969 6.94515625 -0.13335937 7.8828125 -0.10546875 C8.58148437 -0.07066406 9.28015625 -0.03585938 10 0 C13.42705406 7.73361756 16.27405996 15.54206768 18.85595703 23.59130859 C20.340923 28.18424844 22.0642859 32.57192863 24 37 C25.03278605 39.61287478 26.0197683 42.24201518 27 44.875 C27.26055176 45.57463867 27.52110352 46.27427734 27.78955078 46.99511719 C33 61.05257681 33 61.05257681 33 66 C30.03 66 27.06 66 24 66 C22.35 61.71 20.7 57.42 19 53 C9.43 52.67 -0.14 52.34 -10 52 C-10.99 55.96 -11.98 59.92 -13 64 C-13.495 64.99 -13.495 64.99 -14 66 C-17.3 66 -20.6 66 -24 66 C-23.337297 62.22148284 -22.29276447 58.7619842 -20.99047852 55.15576172 C-20.3696212 53.42904739 -20.3696212 53.42904739 -19.73622131 51.66744995 C-19.28830734 50.43398834 -18.84039337 49.20052673 -18.37890625 47.9296875 C-17.91410547 46.6437171 -17.44950382 45.3576747 -16.98509216 44.07156372 C-16.01316846 41.38262424 -15.03862488 38.69465263 -14.06225586 36.00732422 C-12.81178411 32.56480829 -11.56821566 29.11984555 -10.32663059 25.67411613 C-9.36954942 23.02051624 -8.40866285 20.36830673 -7.44663811 17.71649551 C-6.76308828 15.83002815 -6.0828836 13.94234977 -5.40272522 12.05465698 C-4.98566818 10.90981842 -4.56861115 9.76497986 -4.13891602 8.58544922 C-3.59050804 7.07251785 -3.59050804 7.07251785 -3.03102112 5.52902222 C-2 3 -2 3 0 0 Z " fill="#F0F0F0" transform="translate(506,90)"/>
<path d="M0 0 C24.11514778 0 24.11514778 0 31.66796875 7.4609375 C37.71048453 14.44261262 37.36032553 22.49201355 37.2734375 31.36328125 C36.7831163 37.88455325 34.49804147 41.80967947 29.875 46.3125 C20.82345722 53.30600779 11.43580446 52 0 52 C0 34.84 0 17.68 0 0 Z " fill="#030303" transform="translate(354,97)"/>
<path d="M0 0 C36.95013123 0 36.95013123 0 48 10 C54.26464223 16.26464223 56.25513453 23.9044822 56.4375 32.5625 C56.13122139 42.39305545 53.68236292 50.56272579 47 58 C32.62016049 69.10522259 19.05871169 66 0 66 C0 44.22 0 22.44 0 0 Z M9 7 C9 24.16 9 41.32 9 59 C27.15891387 59.60803741 27.15891387 59.60803741 41.37109375 50.859375 C47.47598965 43.89071685 46.52779598 35.83818357 46 27 C45.37710987 20.66234015 42.86097951 16.06629709 38 12 C28.64574612 6.47781077 20.01919392 7 9 7 Z " fill="#F5F5F5" transform="translate(345,90)"/>
<path d="M0 0 C5.76756573 3.53962646 11.27956959 8.28267007 13.2421875 14.98828125 C13.355625 15.56835938 13.4690625 16.1484375 13.5859375 16.74609375 C9.83763652 17.1596541 6.31921536 17.35506815 2.5859375 16.74609375 C0.80607409 15.16641058 -0.08541591 13.63737163 -1.23828125 11.56640625 C-3.5715429 7.95411413 -7.42887148 6.51455479 -11.3515625 4.99609375 C-18.11783243 4.17593982 -24.34915785 4.40248545 -30.4140625 7.74609375 C-36.67580549 13.12711131 -39.92646212 18.20947014 -40.65625 26.49609375 C-41.00531817 34.54519518 -39.97892619 41.57806441 -34.61328125 47.8515625 C-28.76852966 53.35584313 -22.72910132 55.28616314 -14.75 55.0546875 C-10.54375882 54.4990135 -6.91644287 53.14792377 -3.4140625 50.74609375 C-2.09521436 48.9452298 -2.09521436 48.9452298 -1.0390625 46.99609375 C0.05859375 45.1640625 0.05859375 45.1640625 1.5859375 43.74609375 C5.31852686 43.13549947 8.838199 43.33259546 12.5859375 43.74609375 C11.23533674 49.28355687 8.88553463 53.0795157 4.5859375 56.74609375 C-5.17846464 62.63908882 -14.91729758 65.76364309 -26.29296875 63.0625 C-36.1092984 59.77218645 -42.08544155 55.23217493 -47.1875 46.2109375 C-47.59226562 45.39753906 -47.99703125 44.58414063 -48.4140625 43.74609375 C-48.79046875 42.99972656 -49.166875 42.25335938 -49.5546875 41.484375 C-51.92219064 33.94064908 -51.84902853 22.95395055 -48.8515625 15.62109375 C-43.7322975 6.38100196 -36.32933111 -0.11304993 -26.37890625 -3.4921875 C-17.23513562 -5.84137758 -8.30551249 -4.31402833 0 0 Z " fill="#F3F3F3" transform="translate(755.4140625,93.25390625)"/>
<path d="M0 0 C14.19 0 28.38 0 43 0 C43 8.96409336 43 8.96409336 39.3125 14.1875 C38.48313146 15.39930334 37.65648238 16.61297075 36.83203125 17.828125 C36.37908691 18.48748047 35.92614258 19.14683594 35.45947266 19.82617188 C32.6875917 23.95478146 30.10566121 28.20282477 27.5 32.4375 C26.94844238 33.33001465 26.39688477 34.2225293 25.82861328 35.14208984 C21.15107282 42.72150179 16.55961015 50.34912873 12 58 C22.23 58 32.46 58 43 58 C43 60.64 43 63.28 43 66 C28.81 66 14.62 66 0 66 C0 57.00336597 0 57.00336597 2.71875 52.8828125 C3.61194946 51.49545898 3.61194946 51.49545898 4.52319336 50.08007812 C5.50171265 48.61731445 5.50171265 48.61731445 6.5 47.125 C7.86725951 45.01391014 9.23309176 42.90189537 10.59765625 40.7890625 C11.31453613 39.68981445 12.03141602 38.59056641 12.77001953 37.45800781 C16.60596351 31.54300206 20.25784554 25.51289773 23.9375 19.5 C26.268125 15.705 28.59875 11.91 31 8 C20.77 8 10.54 8 0 8 C0 5.36 0 2.72 0 0 Z " fill="#F4F4F4" transform="translate(432,90)"/>
<path d="M0 0 C18.54545455 0 18.54545455 0 24.375 5.0625 C27.72638668 9.05838411 27.45056354 12.87384492 27.4140625 17.94140625 C26.87515337 21.92221612 25.53575893 23.85432794 22.80078125 26.6953125 C18.01273622 30.16430825 13.42378025 30.25724516 7.6875 30.125 C3.8821875 30.063125 3.8821875 30.063125 0 30 C0 20.1 0 10.2 0 0 Z " fill="#9F7E42" transform="translate(637,192)"/>
<path d="M0 0 C2.31 0 4.62 0 7 0 C8.50647598 2.95507906 10.00406365 5.91457341 11.5 8.875 C11.92925781 9.71675781 12.35851562 10.55851563 12.80078125 11.42578125 C13.20683594 12.23144531 13.61289062 13.03710938 14.03125 13.8671875 C14.40830078 14.61081543 14.78535156 15.35444336 15.17382812 16.12060547 C16 18 16 18 16 20 C16.66 20 17.32 20 18 20 C18.25523437 19.16210938 18.51046875 18.32421875 18.7734375 17.4609375 C20.11768918 13.66792162 21.79014193 10.19775209 23.625 6.625 C23.94984375 5.98433594 24.2746875 5.34367188 24.609375 4.68359375 C25.40257407 3.12052499 26.20077031 1.55999378 27 0 C28.98 0 30.96 0 33 0 C34.25676377 9.98678356 34.09367165 19.95631733 34 30 C31.69 30 29.38 30 27 30 C26.505 23.565 26.505 23.565 26 17 C23.69 21.29 21.38 25.58 19 30 C17.35 30 15.7 30 14 30 C11.69 25.71 9.38 21.42 7 17 C6.67 21.29 6.34 25.58 6 30 C4.02 30 2.04 30 0 30 C0 20.1 0 10.2 0 0 Z " fill="#9C7F43" transform="translate(313,192)"/>
<path d="M0 0 C2.97 0 5.94 0 9 0 C9 21.78 9 43.56 9 66 C6.03 66 3.06 66 0 66 C0 44.22 0 22.44 0 0 Z " fill="#F7F7F7" transform="translate(412,90)"/>
<path d="M0 0 C2.536875 -0.061875 5.07375 -0.12375 7.6875 -0.1875 C8.47729248 -0.21481201 9.26708496 -0.24212402 10.08081055 -0.27026367 C14.60318145 -0.32344113 17.43303549 0.18325747 21 3 C22.59616743 6.19233485 22.51466114 9.53461497 22 13 C20.12984906 15.43119623 18.71861655 16.64069173 16 18 C18.23407889 21.35111834 19.26215824 22.81553956 23.25 23.8125 C24.61125 23.9053125 24.61125 23.9053125 26 24 C26.33 25.65 26.66 27.3 27 29 C23.85088521 30.57455739 21.47991184 30.34799118 18 30 C13.43371626 26.95581084 10.81787129 23.6603256 8 19 C7.67 22.63 7.34 26.26 7 30 C4.69 30 2.38 30 0 30 C0 20.1 0 10.2 0 0 Z " fill="#9C7F43" transform="translate(394,192)"/>
<path d="M0 0 C7 0 7 0 8.80444336 1.46875 C9.22862549 2.1390625 9.65280762 2.809375 10.08984375 3.5 C10.56357422 4.221875 11.03730469 4.94375 11.52539062 5.6875 C12.22438477 6.8321875 12.22438477 6.8321875 12.9375 8 C13.67709961 9.1446875 13.67709961 9.1446875 14.43164062 10.3125 C15.6430857 12.19435642 16.82454078 14.09545848 18 16 C18.33 10.72 18.66 5.44 19 0 C21.31 0 23.62 0 26 0 C26 9.9 26 19.8 26 30 C24.02 30 22.04 30 20 30 C17.92548593 27.89850525 16.39842917 26.08128372 14.75 23.6875 C14.316875 23.09259766 13.88375 22.49769531 13.4375 21.88476562 C11.5634889 19.2964324 9.77246203 16.65869304 8 14 C7.67 19.28 7.34 24.56 7 30 C4.69 30 2.38 30 0 30 C0 20.1 0 10.2 0 0 Z " fill="#9A7E43" transform="translate(543,192)"/>
<path d="M0 0 C4.11275909 1.54228466 5.55780938 2.33671407 8 6 C6.3125 7.625 6.3125 7.625 4 9 C1.625 8.1875 1.625 8.1875 -1 7 C-4.92681436 6.67944373 -7.6785483 6.78569886 -11 9 C-12.16343227 11.32686453 -12.19895988 12.84721413 -12.25 15.4375 C-12.27578125 16.21996094 -12.3015625 17.00242188 -12.328125 17.80859375 C-12.16379134 20.06304943 -12.16379134 20.06304943 -10.70703125 21.76953125 C-7.93659284 23.76652919 -5.29713362 23.23979154 -2 23 C-1.34 22.67 -0.68 22.34 0 22 C0.33 21.01 0.66 20.02 1 19 C-0.98 19 -2.96 19 -5 19 C-5 17.02 -5 15.04 -5 13 C-0.38 13 4.24 13 9 13 C9 18.61 9 24.22 9 30 C7.02 30 5.04 30 3 30 C3 29.34 3 28.68 3 28 C2.360625 28.33 1.72125 28.66 1.0625 29 C-3.04889382 30.34249594 -6.7145122 30.61977072 -11 30 C-14.85987396 27.99858387 -17.99446399 25.9055175 -20 22 C-21.52109808 15.93919058 -21.2740691 11.49198687 -18 6 C-12.37075084 0.22103677 -7.83005076 -0.68452898 0 0 Z " fill="#9A7B41" transform="translate(713,192)"/>
<path d="M0 0 C2.5 1.6875 2.5 1.6875 4.5 4.6875 C2.875 6.3125 2.875 6.3125 0.5 7.6875 C-2.375 6.875 -2.375 6.875 -5.5 5.6875 C-9.61364954 5.09983578 -10.9593187 5.29961994 -14.375 7.75 C-17.02580508 11.41434819 -17.14496629 13.25335675 -16.5 17.6875 C-15.68547684 20.24601025 -15.68547684 20.24601025 -13.5 21.6875 C-10.72922639 22.24742717 -8.26608948 22.28681939 -5.5 21.6875 C-3.44729537 19.84561388 -3.44729537 19.84561388 -2.5 17.6875 C-4.48 17.6875 -6.46 17.6875 -8.5 17.6875 C-8.5 15.7075 -8.5 13.7275 -8.5 11.6875 C-4.21 11.6875 0.08 11.6875 4.5 11.6875 C4.5 17.2975 4.5 22.9075 4.5 28.6875 C2.52 28.6875 0.54 28.6875 -1.5 28.6875 C-1.5 28.0275 -1.5 27.3675 -1.5 26.6875 C-2.05945313 27.00976562 -2.61890625 27.33203125 -3.1953125 27.6640625 C-7.19652916 29.44087397 -11.21035898 29.22963473 -15.5 28.6875 C-19.2292443 26.92458451 -20.99195941 25.39875683 -23.375 22.0625 C-25.33214998 16.19105007 -25.56018542 10.97750051 -22.9375 5.3125 C-16.38498424 -1.74405544 -9.02697461 -3.38511548 0 0 Z " fill="#9C7E43" transform="translate(604.5,193.3125)"/>
<path d="M0 0 C2.01464844 1.67407227 2.01464844 1.67407227 4.109375 3.81640625 C5.24052734 4.96206055 5.24052734 4.96206055 6.39453125 6.13085938 C7.56048828 7.33452148 7.56048828 7.33452148 8.75 8.5625 C9.93916016 9.77196289 9.93916016 9.77196289 11.15234375 11.00585938 C13.10847046 12.99733778 15.05725719 14.99547721 17 17 C15.09733802 21.03943456 13.51926721 22.37385813 9.48828125 24.23828125 C3.92816885 25.94035647 -2.37581628 26.25271252 -7.67578125 23.72265625 C-10.83533177 21.38087175 -12.71188623 19.57294545 -13.43359375 15.6328125 C-13.44248464 9.9248587 -12.9865039 6.41747729 -9 2 C-5.63893214 -0.60482759 -3.99574909 -1.53114653 0 0 Z " fill="#030303" transform="translate(657,124)"/>
<path d="M0 0 C2.31 0 4.62 0 7 0 C7.33 3.63 7.66 7.26 8 11 C8.6290625 10.2059375 9.258125 9.411875 9.90625 8.59375 C16.67998237 0.39431836 16.67998237 0.39431836 20.4453125 -0.73046875 C22.625 -0.6875 22.625 -0.6875 26 0 C22.80173015 5.11723176 19.04165813 9.52692892 15 14 C15.30421875 14.60457031 15.6084375 15.20914063 15.921875 15.83203125 C16.72111222 17.43919305 17.4930257 19.06000526 18.25 20.6875 C19.86246846 23.31778176 19.86246846 23.31778176 23.1875 23.8125 C24.5796875 23.9053125 24.5796875 23.9053125 26 24 C26.33 25.65 26.66 27.3 27 29 C23.97562661 30.5121867 21.33758466 30.17263369 18 30 C12.72744436 28.11694441 10.86090009 23.55143196 8 19 C7.67 22.63 7.34 26.26 7 30 C4.69 30 2.38 30 0 30 C0 20.1 0 10.2 0 0 Z " fill="#9E7F42" transform="translate(428,192)"/>
<path d="M0 0 C2.31 0 4.62 0 7 0 C8.63236282 3.68428336 10.25455012 7.37296329 11.875 11.0625 C12.33519531 12.10083984 12.79539062 13.13917969 13.26953125 14.20898438 C15.55226326 19.41956831 17.63582918 24.47275617 19 30 C16.69 30 14.38 30 12 30 C11.34 28.02 10.68 26.04 10 24 C5.71 24 1.42 24 -3 24 C-3.66 25.98 -4.32 27.96 -5 30 C-7.31 30 -9.62 30 -12 30 C-9.8197371 23.12052968 -7.19745965 16.54944102 -4.3125 9.9375 C-3.89677734 8.97650391 -3.48105469 8.01550781 -3.05273438 7.02539062 C-2.03848513 4.68212514 -1.02085998 2.34039113 0 0 Z " fill="#9C7E42" transform="translate(367,192)"/>
<path d="M0 0 C2.31 0 4.62 0 7 0 C8.57328857 3.78753248 10.13966727 7.57784014 11.69970703 11.37084961 C12.23134392 12.66069346 12.76486022 13.94976435 13.30029297 15.23803711 C14.06972387 17.09023857 14.83183735 18.94547446 15.59375 20.80078125 C16.05458984 21.91622314 16.51542969 23.03166504 16.99023438 24.1809082 C18 27 18 27 18 30 C15.69 30 13.38 30 11 30 C10.34 28.35 9.68 26.7 9 25 C4.71 24.67 0.42 24.34 -4 24 C-4.33 25.98 -4.66 27.96 -5 30 C-7.31 30 -9.62 30 -12 30 C-11.35990983 26.03526237 -10.1301723 22.7055586 -8.49609375 19.04296875 C-8.00302734 17.93115234 -7.50996094 16.81933594 -7.00195312 15.67382812 C-6.48568359 14.52333984 -5.96941406 13.37285156 -5.4375 12.1875 C-4.91736328 11.01767578 -4.39722656 9.84785156 -3.86132812 8.64257812 C-2.57872888 5.75967157 -1.29147717 2.87893769 0 0 Z " fill="#9C7E42" transform="translate(791,192)"/>
<path d="M0 0 C6.93 0 13.86 0 21 0 C21 1.98 21 3.96 21 6 C16.38 6 11.76 6 7 6 C7 7.98 7 9.96 7 12 C11.29 12 15.58 12 20 12 C20 13.98 20 15.96 20 18 C15.71 18 11.42 18 7 18 C7 19.98 7 21.96 7 24 C11.62 24 16.24 24 21 24 C21 25.98 21 27.96 21 30 C14.07 30 7.14 30 0 30 C0 20.1 0 10.2 0 0 Z " fill="#9A7D43" transform="translate(462,192)"/>
<path d="M0 0 C0.66 0 1.32 0 2 0 C2.32613281 1.07378906 2.65226563 2.14757812 2.98828125 3.25390625 C3.42948531 4.69016629 3.87090299 6.12636073 4.3125 7.5625 C4.52583984 8.26697266 4.73917969 8.97144531 4.95898438 9.69726562 C6.00368327 13.08084266 7.12046165 16.27538449 8.54296875 19.52734375 C10 23 10 23 12 31 C4.74 31 -2.52 31 -10 31 C-7.86035104 20.30175519 -4.09794418 10.08724721 0 0 Z " fill="#080808" transform="translate(510,103)"/>
<path d="M0 0 C2.21048613 2.21048613 2.66775242 3.5369009 3.62109375 6.47265625 C3.91693359 7.37306641 4.21277344 8.27347656 4.51757812 9.20117188 C4.82115234 10.14541016 5.12472656 11.08964844 5.4375 12.0625 C5.88706055 13.43825195 5.88706055 13.43825195 6.34570312 14.84179688 C6.91612614 16.587712 7.48406344 18.33444285 8.04858398 20.08227539 C9.34607392 24.06131111 10.67651198 28.02953594 12 32 C4.74 32 -2.52 32 -10 32 C-8.41009746 24.05048729 -6.61479664 17.68173635 -3.4375 10.4375 C-1.98738311 6.96982918 -0.96200886 3.62603339 0 0 Z " fill="#080808" transform="translate(599,102)"/>
<path d="M0 0 C8.91 0 17.82 0 27 0 C26.67 1.98 26.34 3.96 26 6 C23.03 6 20.06 6 17 6 C17 13.92 17 21.84 17 30 C14.69 30 12.38 30 10 30 C10 22.08 10 14.16 10 6 C6.7 6 3.4 6 0 6 C0 4.02 0 2.04 0 0 Z " fill="#9B7E42" transform="translate(747,192)"/>
<path d="M0 0 C8.58 0 17.16 0 26 0 C26 1.98 26 3.96 26 6 C22.7 6 19.4 6 16 6 C16 13.92 16 21.84 16 30 C13.69 30 11.38 30 9 30 C9 22.08 9 14.16 9 6 C6.03 6 3.06 6 0 6 C0 4.02 0 2.04 0 0 Z " fill="#9A7E44" transform="translate(490,192)"/>
<path d="M0 0 C2.31 0 4.62 0 7 0 C7 7.92 7 15.84 7 24 C10.96 24 14.92 24 19 24 C19 25.98 19 27.96 19 30 C12.73 30 6.46 30 0 30 C0 20.1 0 10.2 0 0 Z " fill="#A07D41" transform="translate(818,192)"/>
<path d="M0 0 C8 0 8 0 11 2 C13.21925086 5.32887629 13.75890933 7.13936508 13.4765625 11.0625 C12.60276841 14.61497432 10.9838283 16.01078114 8 18 C5.36 18 2.72 18 0 18 C0 12.06 0 6.12 0 0 Z " fill="#000001" transform="translate(644,198)"/>
<path d="M0 0 C2.31 0 4.62 0 7 0 C7 9.9 7 19.8 7 30 C4.69 30 2.38 30 0 30 C0 20.1 0 10.2 0 0 Z " fill="#9A8144" transform="translate(732,192)"/>
<path d="M0 0 C2.31 0 4.62 0 7 0 C7 9.9 7 19.8 7 30 C4.69 30 2.38 30 0 30 C0 20.1 0 10.2 0 0 Z " fill="#A07C3F" transform="translate(675,192)"/>
<path d="M0 0 C2.31 0 4.62 0 7 0 C7 9.9 7 19.8 7 30 C4.69 30 2.38 30 0 30 C0 20.1 0 10.2 0 0 Z " fill="#977F46" transform="translate(524,192)"/>
<path d="M0 0 C2.31 0 4.62 0 7 0 C7.38218767 1.65614657 7.71395102 3.32457024 8 5 C7 6 7 6 3.4375 6.0625 C2.303125 6.041875 1.16875 6.02125 0 6 C0 4.02 0 2.04 0 0 Z " fill="#060101" transform="translate(401,198)"/>
<path d="M0 0 C1.99097846 2.98646769 2.94124926 5.59687262 4 9 C1.36 9 -1.28 9 -4 9 C-2.68 6.03 -1.36 3.06 0 0 Z " fill="#130D08" transform="translate(794,201)"/>
<path d="M0 0 C2.50298434 2.93828597 3.46930939 5.17902761 4 9 C1.69 9 -0.62 9 -3 9 C-2.01 6.03 -1.02 3.06 0 0 Z " fill="#130906" transform="translate(370,201)"/>
<path d="M0 0 C0.66 0.33 1.32 0.66 2 1 C1.05125 1.78375 0.1025 2.5675 -0.875 3.375 C-4.8523213 7.2772775 -5.38464919 11.63159467 -6 17 C-6.33 17 -6.66 17 -7 17 C-7.38434943 12.19563218 -7.47968712 8.90975143 -5.1875 4.5625 C-3 2 -3 2 0 0 Z " fill="#B9B9B9" transform="translate(651,91)"/>
</svg>
