<?xml version="1.0" encoding="UTF-8"?>
<svg version="1.1" xmlns="http://www.w3.org/2000/svg" width="841" height="302">
<path d="M0 0 C277.53 0 555.06 0 841 0 C841 99.66 841 199.32 841 302 C563.47 302 285.94 302 0 302 C0 202.34 0 102.68 0 0 Z " fill="#000000" transform="translate(0,0)"/>
<path d="M0 0 C26.20680254 6.2059915 54.3514887 19.499885 69 43 C81.59891999 64.14455378 82.2451543 85.57720409 76.49609375 109.05810547 C70.4056126 132.1624585 59.07808523 152.4707149 43 170 C42.40832031 170.67417969 41.81664062 171.34835937 41.20703125 172.04296875 C20.67439834 194.26466144 -14.31802124 207.43496427 -44.08797455 209.18112564 C-47.33931358 209.24339676 -50.5850464 209.2477989 -53.83691406 209.22705078 C-55.6976185 209.22741239 -55.6976185 209.22741239 -57.59591293 209.2277813 C-60.24292126 209.22679521 -62.88960679 209.22232081 -65.53656006 209.21115112 C-69.33284111 209.19604007 -73.12898494 209.19093216 -76.92529297 209.18920898 C-86.03354781 209.17876827 -95.14177585 209.15084575 -104.25 209.125 C-124.6275 209.08375 -145.005 209.0425 -166 209 C-166 161.81 -166 114.62 -166 66 C-148.25418116 66 -135.38210448 68.60666738 -122.375 80.375 C-121.59125 81.24125 -120.8075 82.1075 -120 83 C-119.45730469 83.55042969 -118.91460937 84.10085937 -118.35546875 84.66796875 C-109.29575388 94.24087009 -104.63460348 105.89572502 -104.8046875 118.99609375 C-104.8075174 119.82963882 -104.81034729 120.6631839 -104.81326294 121.52198792 C-104.82437711 124.1606436 -104.84946485 126.79894848 -104.875 129.4375 C-104.88504115 131.23632319 -104.89416501 133.03515175 -104.90234375 134.83398438 C-104.92428765 139.22278955 -104.95875613 143.61133548 -105 148 C-97.79957237 147.93206869 -90.59964876 147.84192415 -83.3996582 147.73754883 C-80.95896427 147.7046424 -78.51820049 147.67650841 -76.07739258 147.65356445 C-50.33286324 147.40515696 -25.47047369 146.50120703 -5 129 C-4.34773437 128.44699219 -3.69546875 127.89398438 -3.0234375 127.32421875 C10.76527036 114.598517 19.1364559 92.28298761 20.12207031 73.69824219 C20.94756214 47.96875601 16.45943527 26.95408952 3 5 C1.9993387 3.33373029 0.9990901 1.66721227 0 0 Z " fill="#FEFEFE" transform="translate(233,91)"/>
<path d="M0 0 C23.21949107 -0.07036433 46.43896433 -0.12312164 69.65854073 -0.15543652 C80.44199329 -0.17084574 91.22537927 -0.19182028 102.00878906 -0.22631836 C111.41755595 -0.25640412 120.82627457 -0.27561808 130.23508823 -0.28226548 C135.20794527 -0.28614556 140.18066431 -0.29513722 145.15347672 -0.31719017 C195.46896937 -0.53156317 195.46896937 -0.53156317 215.375 6.6875 C216.86821777 7.20860352 216.86821777 7.20860352 218.39160156 7.74023438 C252.40824306 19.9400638 277.82898087 42.86449809 293.34375 75.37890625 C294.16359375 77.17134766 294.16359375 77.17134766 295 79 C295.75410156 80.62228516 295.75410156 80.62228516 296.5234375 82.27734375 C298.53622811 87.03466657 299.79273105 92.01905478 301.125 97 C301.38925781 97.9590625 301.65351563 98.918125 301.92578125 99.90625 C303.2857371 104.93187365 304.41069591 109.8256226 305 115 C301.4077633 111.99425093 297.94125925 108.99496494 294.6875 105.625 C281.58837061 92.46841829 265.39285074 83.18128274 248 77 C246.62426083 76.46021345 245.24911066 75.9189188 243.875 75.375 C242.58694387 74.90661595 241.29490585 74.44910029 240 74 C239.15566406 73.70609375 238.31132812 73.4121875 237.44140625 73.109375 C202.47404144 61.65062867 166.59128063 61.52971735 130.21661377 61.38873291 C121.53192833 61.3523615 112.84738291 61.29146956 104.1628437 61.23024368 C101.16348924 61.21140018 98.16417285 61.19950894 95.16477966 61.18881226 C65.39477505 61.04486384 41.61177421 54.54949244 20 33 C19.27039063 32.29359375 18.54078125 31.5871875 17.7890625 30.859375 C10.54921718 23.36198577 5.05865213 13.60841702 1.43501282 3.86036682 C1.16595784 3.13802636 0.89690287 2.4156859 0.61969471 1.67145634 C0.41519546 1.11987575 0.2106962 0.56829515 0 0 Z " fill="#FDFDFD" transform="translate(8,9)"/>
<path d="M0 0 C3.22189876 2.3574869 5.37061713 4.52270855 7.5625 7.875 C7.875 11.75 7.875 11.75 7.5625 14.875 C4.5925 14.875 1.6225 14.875 -1.4375 14.875 C-1.685 13.92625 -1.9325 12.9775 -2.1875 12 C-3.14769158 8.89572397 -3.14769158 8.89572397 -5.125 7.4375 C-8.46179698 6.62584668 -11.11344536 7.13632119 -14.4375 7.875 C-16.65490981 9.72000955 -16.65490981 9.72000955 -16.9375 12.4375 C-15.62526853 21.45909136 -7.409373 28.34106799 -1.1875 34.4375 C-0.3728125 35.25541016 0.441875 36.07332031 1.28125 36.91601562 C4.83806706 41.11460237 4.83806706 41.11460237 9.5625 42.875 C11.12149937 40.6590167 11.12149937 40.6590167 12.625 37.9375 C15.50289735 32.93460265 15.50289735 32.93460265 16.5625 31.875 C18.08178038 31.80320036 19.60417482 31.79107993 21.125 31.8125 C21.95128906 31.82152344 22.77757812 31.83054688 23.62890625 31.83984375 C24.26699219 31.85144531 24.90507813 31.86304688 25.5625 31.875 C23.88375531 37.61356602 21.0523879 42.08159076 17.828125 47.0703125 C16.31041522 49.68729278 16.31041522 49.68729278 17.0078125 51.88671875 C19.18537512 54.67159155 21.64053592 57.12219812 24.1875 59.5625 C26.00101058 61.31480459 27.78936009 63.08110427 29.5625 64.875 C29.5625 65.205 29.5625 65.535 29.5625 65.875 C19.18492152 66.9485426 19.18492152 66.9485426 15.20703125 64.31640625 C13.51056435 62.57796491 11.98681461 60.84095538 10.5625 58.875 C8.07444836 60.0735453 5.9236705 61.30994775 3.625 62.875 C-4.09443625 67.91626449 -12.49596145 67.77297023 -21.4375 66.875 C-28.15276586 65.17444347 -32.02739774 60.8606108 -35.54296875 55.046875 C-37.62513712 49.9914793 -37.42258044 43.63322523 -35.59765625 38.5234375 C-32.69702631 33.46442636 -28.45458198 29.79886235 -23.4375 26.875 C-22.7775 26.875 -22.1175 26.875 -21.4375 26.875 C-21.7984375 26.41351563 -22.159375 25.95203125 -22.53125 25.4765625 C-25.91947251 20.71422752 -27.19356057 17.07109182 -26.8515625 11.203125 C-25.94469167 6.10411545 -23.37928498 3.62057978 -19.4375 0.5 C-13.47670621 -2.57695403 -6.2050567 -2.03074583 0 0 Z " fill="#F4F4F4" transform="translate(672.4375,121.125)"/>
<path d="M0 0 C3.63 0 7.26 0 11 0 C11.34611328 1.09054688 11.34611328 1.09054688 11.69921875 2.203125 C12.18841797 3.71132812 12.18841797 3.71132812 12.6875 5.25 C13.00074219 6.22453125 13.31398438 7.1990625 13.63671875 8.203125 C14.7140847 11.34544236 15.9924648 14.38131573 17.29296875 17.4375 C20.3787879 24.76781581 23.00211989 32.24604779 25.625 39.75 C26.34278271 41.79437302 27.06155284 43.83839488 27.78094482 45.88220215 C28.23896137 47.18403491 28.69605749 48.48619193 29.15216064 49.78869629 C30.32767318 53.13641639 31.54823867 56.45957524 32.8359375 59.765625 C34 63 34 63 34 66 C30.7 66 27.4 66 24 66 C23.72285156 65.14535156 23.44570313 64.29070312 23.16015625 63.41015625 C22.79792969 62.30542969 22.43570313 61.20070312 22.0625 60.0625 C21.70285156 58.96035156 21.34320312 57.85820312 20.97265625 56.72265625 C20.26143332 54.11876525 20.26143332 54.11876525 19 53 C16.9291528 52.8415735 14.85321971 52.74875578 12.77734375 52.68359375 C10.88725586 52.62075195 10.88725586 52.62075195 8.95898438 52.55664062 C7.61849264 52.51682404 6.2779978 52.47711186 4.9375 52.4375 C3.59308477 52.39431958 2.2486834 52.35070544 0.90429688 52.30664062 C-2.3970234 52.20014642 -5.69842236 52.0981354 -9 52 C-9.30417847 52.92123657 -9.30417847 52.92123657 -9.61450195 53.86108398 C-9.88222412 54.66876221 -10.14994629 55.47644043 -10.42578125 56.30859375 C-10.69044189 57.10837646 -10.95510254 57.90815918 -11.2277832 58.73217773 C-12.06572772 61.19302713 -12.9946969 63.60273876 -14 66 C-16.97 66 -19.94 66 -23 66 C-22.42744608 59.55876839 -20.29927604 54.01224125 -18 48 C-17.32980254 46.16795444 -16.66308796 44.33463073 -16 42.5 C-8 20.5 -8 20.5 -7.0078125 17.77734375 C-6.31013055 15.85466208 -5.61777291 13.93004315 -4.9296875 12.00390625 C-4.58164062 11.03324219 -4.23359375 10.06257812 -3.875 9.0625 C-3.56304688 8.18722656 -3.25109375 7.31195313 -2.9296875 6.41015625 C-2 4 -2 4 0 0 Z " fill="#EFEFEF" transform="translate(596,121)"/>
<path d="M0 0 C3.63 0 7.26 0 11 0 C14.9896991 8.97682298 18.11643311 18.11749484 21.14453125 27.45703125 C23.16269189 33.68696894 23.16269189 33.68696894 25.5859375 39.765625 C27.11791315 43.2697019 28.31930804 46.80081738 29.5 50.4375 C31.21483316 55.67514771 33.00736573 60.86110108 35 66 C31.7 66 28.4 66 25 66 C22.63232952 61.58752319 21.41730507 57.96056775 20 53 C10.43 52.67 0.86 52.34 -9 52 C-9.66 54.97 -10.32 57.94 -11 61 C-11.61896629 62.68496378 -12.26117922 64.36403971 -13 66 C-16.3 66 -19.6 66 -23 66 C-21.95483467 60.85457067 -20.77141152 56.03423527 -18.84765625 51.15234375 C-17.87377172 48.67948487 -16.96648236 46.18674534 -16.0625 43.6875 C-15.72347656 42.75292969 -15.38445312 41.81835938 -15.03515625 40.85546875 C-14.69355469 39.91316406 -14.35195313 38.97085938 -14 38 C-13.33354155 36.16659096 -12.66687664 34.33325697 -12 32.5 C-11.67 31.5925 -11.34 30.685 -11 29.75 C-8 21.5 -8 21.5 -7.0078125 18.7734375 C-6.31344502 16.86258125 -5.62084033 14.95108383 -4.9296875 13.0390625 C-4.58164062 12.07742187 -4.23359375 11.11578125 -3.875 10.125 C-3.56304687 9.26132813 -3.25109375 8.39765625 -2.9296875 7.5078125 C-1.99589833 4.98893582 -0.99770094 2.49425235 0 0 Z " fill="#F0F0F0" transform="translate(507,121)"/>
<path d="M0 0 C37.9885989 0 37.9885989 0 48.34765625 9.96484375 C55.83392317 19.18551767 57.01944239 29.56686819 56 41 C54.12346683 49.67048759 48.90907751 55.78586961 42.1875 61.3125 C28.11006339 68.76526056 16.90679622 66 0 66 C0 44.22 0 22.44 0 0 Z M9 7 C9 24.16 9 41.32 9 59 C26.33302554 59.69942259 26.33302554 59.69942259 40.52734375 51.765625 C45.36171733 45.96950601 46.3492925 40.32724899 46.4375 32.875 C46.4528479 31.87170654 46.4528479 31.87170654 46.46850586 30.84814453 C46.34950121 24.0956712 44.09727439 18.45337801 39.58203125 13.3515625 C30.99684473 6.01705747 19.61716605 7 9 7 Z " fill="#F5F5F5" transform="translate(347,121)"/>
<path d="M0 0 C4.26006143 3.03425335 7.83376428 6.63163551 10.25 11.3125 C10.25 12.6325 10.25 13.9525 10.25 15.3125 C6.85192261 15.66268355 3.63585307 15.83381389 0.25 15.3125 C-1.875 12.625 -1.875 12.625 -3.75 9.3125 C-9.95206423 4.40793875 -15.81761384 2.53043376 -23.75 3.3125 C-30.28909068 4.79469389 -35.25839382 7.08264013 -39.4375 12.5 C-42.94743571 20.02129082 -44.20344386 28.92297304 -42.02734375 36.9921875 C-39.4037358 44.15134441 -35.67545366 48.84977317 -28.75 52.3125 C-26.4484589 53.09052187 -26.4484589 53.09052187 -23.75 53.3125 C-23.10160156 53.38855469 -22.45320312 53.46460938 -21.78515625 53.54296875 C-15.2462964 53.96816702 -10.08778968 52.0958784 -4.75 48.3125 C-4.110625 47.219375 -3.47125 46.12625 -2.8125 45 C-0.75 42.3125 -0.75 42.3125 1.92578125 41.93359375 C4.7246976 41.93715019 7.46390284 42.05310475 10.25 42.3125 C8.69801354 48.6756445 5.45882414 53.05861244 0.13671875 56.796875 C-8.77965805 62.03274393 -18.40960035 64.07259583 -28.6171875 61.625 C-40.00998205 57.83792148 -46.06210132 51.81450423 -51.75 41.3125 C-54.51700784 33.01147648 -54.41750493 20.30461037 -50.5625 12.4375 C-49.15625 10.2109375 -49.15625 10.2109375 -47.75 8.3125 C-47.028125 7.24 -46.30625 6.1675 -45.5625 5.0625 C-32.8081508 -7.40841922 -15.14077818 -9.29208293 0 0 Z " fill="#F3F3F3" transform="translate(759.75,125.6875)"/>
<path d="M0 0 C14.19 0 28.38 0 43 0 C43 8.92380952 43 8.92380952 40.25 12.25 C36.53101905 17.13866044 33.37435244 22.22173413 30.25 27.5 C29.21770729 29.23713333 28.18515214 30.97411072 27.15234375 32.7109375 C26.63397949 33.58331055 26.11561523 34.45568359 25.58154297 35.35449219 C22.56004193 40.40867331 19.47350393 45.42316107 16.38964844 50.43945312 C15.95813477 51.14263672 15.52662109 51.84582031 15.08203125 52.5703125 C14.70280518 53.18664551 14.3235791 53.80297852 13.93286133 54.43798828 C12.9445216 56.04874498 12.9445216 56.04874498 12 58 C22.23 58 32.46 58 43 58 C43 60.64 43 63.28 43 66 C28.81 66 14.62 66 0 66 C0 57.00098441 0 57.00098441 2.53515625 53.03125 C3.09050049 52.14139404 3.64584473 51.25153809 4.21801758 50.3347168 C5.13103638 48.93153198 5.13103638 48.93153198 6.0625 47.5 C6.68213623 46.51620361 7.30177246 45.53240723 7.94018555 44.51879883 C9.25945774 42.42668974 10.58625938 40.33931283 11.91992188 38.25634766 C14.74739971 33.82995102 17.52317726 29.3720155 20.30053711 24.9140625 C22.76738188 20.958011 25.24840948 17.01093723 27.73168945 13.06518555 C29.01439165 11.04371098 29.01439165 11.04371098 30 9 C15.15 8.505 15.15 8.505 0 8 C0 5.36 0 2.72 0 0 Z " fill="#F4F4F4" transform="translate(434,121)"/>
<path d="M0 0 C3.3 0 6.6 0 10 0 C10 21.78 10 43.56 10 66 C6.7 66 3.4 66 0 66 C0 44.22 0 22.44 0 0 Z " fill="#E7E7E7" transform="translate(413,121)"/>
<path d="M0 0 C2.01464844 1.67407227 2.01464844 1.67407227 4.109375 3.81640625 C5.24052734 4.96206055 5.24052734 4.96206055 6.39453125 6.13085938 C7.56048828 7.33452148 7.56048828 7.33452148 8.75 8.5625 C9.93916016 9.77196289 9.93916016 9.77196289 11.15234375 11.00585938 C13.10847046 12.99733778 15.05725719 14.99547721 17 17 C13.87989975 21.03040434 11.92972379 23.35675874 7 25 C-3.52391356 26.2199696 -3.52391356 26.2199696 -8.140625 23.9453125 C-11.09488706 21.52167032 -12.83875176 19.40977033 -13.2734375 15.609375 C-13.58144695 6.9377243 -13.58144695 6.9377243 -10.75 3.4375 C-4.87812105 -1.76711998 -4.87812105 -1.76711998 0 0 Z " fill="#040404" transform="translate(659,155)"/>
<path d="M0 0 C2.21048613 2.21048613 2.66775242 3.5369009 3.62109375 6.47265625 C3.91693359 7.37306641 4.21277344 8.27347656 4.51757812 9.20117188 C4.82115234 10.14541016 5.12472656 11.08964844 5.4375 12.0625 C5.88706055 13.43825195 5.88706055 13.43825195 6.34570312 14.84179688 C6.91612614 16.587712 7.48406344 18.33444285 8.04858398 20.08227539 C9.34607392 24.06131111 10.67651198 28.02953594 12 32 C4.74 32 -2.52 32 -10 32 C-8.41009746 24.05048729 -6.61479664 17.68173635 -3.4375 10.4375 C-1.98738311 6.96982918 -0.96200886 3.62603339 0 0 Z " fill="#080808" transform="translate(512,133)"/>
<path d="M0 0 C2.47283243 2.47283243 3.15201368 4.66192198 4.375 7.9375 C4.80941406 9.10023438 5.24382813 10.26296875 5.69140625 11.4609375 C6.12324219 12.62882813 6.55507813 13.79671875 7 15 C7.40089844 16.04414063 7.80179688 17.08828125 8.21484375 18.1640625 C8.57707031 19.12054688 8.93929687 20.07703125 9.3125 21.0625 C9.80169922 22.34833984 9.80169922 22.34833984 10.30078125 23.66015625 C11 26 11 26 11 30 C3.74 30 -3.52 30 -11 30 C-9.29573156 23.5075488 -7.49768419 17.22645442 -5 11 C-4.65582031 10.11570313 -4.31164062 9.23140625 -3.95703125 8.3203125 C-1.13971445 1.13971445 -1.13971445 1.13971445 0 0 Z " fill="#070707" transform="translate(601,135)"/>
<path d="M0 0 C0.66 0.33 1.32 0.66 2 1 C-1.63 4.63 -5.26 8.26 -9 12 C-9 7.8407692 -6.75316432 5.85455565 -4 3 C-1.6875 1.125 -1.6875 1.125 0 0 Z " fill="#D5D5D5" transform="translate(721,125)"/>
</svg>
